
<!-- Generator: visioncortex VTracer 0.6.4 -->
<svg version="1.1" xmlns="http://www.w3.org/2000/svg" viewBox="0 0 612 568" preserveAspectRatio="xMidYMid meet">
<path d="M0 0 C0.495 0.406 0.989 0.812 1.499 1.23 C15.616 12.821 28.811 25.538 40 40 C40.601 40.71 41.201 41.421 41.82 42.152 C53.22 55.722 62.882 71.262 71 87 C71.396 87.767 71.793 88.534 72.201 89.324 C105.218 154.031 111.7 231.527 89.415 300.725 C85.342 313.146 80.809 325.283 75 337 C74.608 337.806 74.215 338.613 73.811 339.443 C64.596 358.253 53.243 375.772 40 392 C39.571 392.53 39.142 393.061 38.7 393.607 C26.965 408.037 13.814 421.719 -1 433 C-2.499 434.189 -2.499 434.189 -4.027 435.402 C-38.57 462.717 -79.69 481.783 -123 490 C-123.963 490.193 -124.927 490.386 -125.919 490.585 C-195.536 504.051 -272.018 488.429 -330.734 448.855 C-338.407 443.563 -345.857 437.99 -353 432 C-353.742 431.391 -353.742 431.391 -354.499 430.77 C-368.616 419.179 -381.811 406.462 -393 392 C-393.901 390.935 -393.901 390.935 -394.82 389.848 C-406.22 376.278 -415.882 360.738 -424 345 C-424.396 344.233 -424.793 343.466 -425.201 342.676 C-459.178 276.088 -464.141 198.187 -441.164 127.328 C-424.536 77.79 -393.503 31.221 -352 -1 C-350.757 -1.994 -349.515 -2.989 -348.273 -3.984 C-319.506 -26.782 -286.339 -43.184 -251 -53 C-250.213 -53.22 -249.427 -53.44 -248.616 -53.667 C-242.457 -55.349 -236.26 -56.746 -230 -58 C-229.021 -58.199 -228.041 -58.398 -227.032 -58.603 C-147.929 -73.881 -61.636 -51.685 0 0 Z " fill="#020202" transform="translate(482,72)"/>
<path d="M0 0 C0.495 0.406 0.989 0.812 1.499 1.23 C15.616 12.821 28.811 25.538 40 40 C40.601 40.71 41.201 41.421 41.82 42.152 C53.22 55.722 62.882 71.262 71 87 C71.396 87.767 71.793 88.534 72.201 89.324 C105.218 154.031 111.7 231.527 89.415 300.725 C85.342 313.146 80.809 325.283 75 337 C74.608 337.806 74.215 338.613 73.811 339.443 C64.596 358.253 53.243 375.772 40 392 C39.571 392.53 39.142 393.061 38.7 393.607 C26.965 408.037 13.814 421.719 -1 433 C-2.499 434.189 -2.499 434.189 -4.027 435.402 C-38.57 462.717 -79.69 481.783 -123 490 C-123.963 490.193 -124.927 490.386 -125.919 490.585 C-195.536 504.051 -272.018 488.429 -330.734 448.855 C-338.407 443.563 -345.857 437.99 -353 432 C-353.742 431.391 -353.742 431.391 -354.499 430.77 C-368.616 419.179 -381.811 406.462 -393 392 C-393.901 390.935 -393.901 390.935 -394.82 389.848 C-406.22 376.278 -415.882 360.738 -424 345 C-424.396 344.233 -424.793 343.466 -425.201 342.676 C-459.178 276.088 -464.141 198.187 -441.164 127.328 C-424.536 77.79 -393.503 31.221 -352 -1 C-350.757 -1.994 -349.515 -2.989 -348.273 -3.984 C-319.506 -26.782 -286.339 -43.184 -251 -53 C-250.213 -53.22 -249.427 -53.44 -248.616 -53.667 C-242.457 -55.349 -236.26 -56.746 -230 -58 C-229.021 -58.199 -228.041 -58.398 -227.032 -58.603 C-147.929 -73.881 -61.636 -51.685 0 0 Z M-211 6 C-212.465 6.21 -213.931 6.413 -215.398 6.605 C-224.114 7.844 -232.449 9.82 -240.875 12.375 C-242.264 12.795 -242.264 12.795 -243.681 13.223 C-266.096 20.258 -287.46 31.616 -306 46 C-306.998 46.768 -307.995 47.537 -309.023 48.328 C-342.785 75.221 -368.07 110.688 -381 152 C-381.261 152.831 -381.521 153.663 -381.79 154.519 C-388.279 175.664 -390.26 195.971 -390.312 218 C-390.316 218.878 -390.32 219.756 -390.324 220.66 C-390.355 235.123 -389.273 249.023 -385.812 263.125 C-385.597 264.006 -385.382 264.886 -385.161 265.793 C-376.426 300.496 -360.496 332.558 -336 358.848 C-334.159 360.829 -332.423 362.864 -330.688 364.938 C-303.009 396.471 -260.704 417.782 -220 426 C-218.99 426.222 -218.99 426.222 -217.959 426.449 C-204.628 429.287 -191.192 429.291 -177.625 429.312 C-176.268 429.318 -176.268 429.318 -174.883 429.323 C-160.305 429.354 -146.284 428.347 -132.062 424.875 C-130.754 424.556 -130.754 424.556 -129.42 424.231 C-83.273 412.592 -41.641 387.589 -12 350 C-11.184 348.989 -10.368 347.979 -9.527 346.938 C-3.229 339.051 2.049 330.786 7 322 C7.375 321.345 7.75 320.691 8.137 320.017 C26.025 288.62 34.461 253.24 34.375 217.25 C34.374 216.352 34.373 215.455 34.372 214.53 C34.187 156.652 11.297 106.761 -28 65 C-28.616 64.341 -29.232 63.683 -29.867 63.004 C-34.838 57.854 -40.37 53.406 -46 49 C-46.82 48.358 -46.82 48.358 -47.656 47.702 C-57.86 39.777 -68.632 33.125 -80 27 C-80.666 26.638 -81.333 26.276 -82.019 25.903 C-111.732 10.066 -144.623 3.572 -178 3.562 C-178.9 3.562 -179.801 3.561 -180.728 3.561 C-191.012 3.588 -200.863 4.123 -211 6 Z " fill="#040404" transform="translate(482,72)"/>
<path d="M0 0 C10.171 -0.21 20.342 -0.369 30.515 -0.466 C35.24 -0.513 39.964 -0.576 44.689 -0.679 C49.26 -0.778 53.83 -0.831 58.402 -0.854 C60.135 -0.87 61.867 -0.902 63.598 -0.952 C79.409 -1.381 88.229 3.499 100.5 13.25 C109.281 21.666 112.993 32.254 115 44 C115.183 44.875 115.366 45.751 115.555 46.652 C117.236 59.295 117.536 73.976 113 86 C112.648 86.975 112.296 87.949 111.934 88.953 C105.984 104.27 98.047 116.629 83 124 C71.404 129.06 60.838 129.551 49 125 C48.34 124.67 47.68 124.34 47 124 C47 134.89 47 145.78 47 157 C56.121 151.788 65.166 146.536 74.125 141.062 C75.332 140.327 76.539 139.592 77.746 138.856 C79.618 137.717 81.49 136.576 83.361 135.436 C87.67 132.808 91.984 130.189 96.301 127.574 C109.338 119.677 122.35 111.744 135.289 103.686 C138.305 101.81 141.326 99.942 144.348 98.074 C146.503 96.737 148.658 95.4 150.812 94.062 C151.809 93.447 152.806 92.832 153.833 92.199 C158.162 89.505 162.471 86.775 166.66 83.867 C167.294 83.431 167.929 82.995 168.582 82.546 C170.508 80.446 170.521 78.864 170.625 76.062 C170.28 71.838 169.39 67.996 168 64 C169.98 63.34 171.96 62.68 174 62 C180.206 72.442 186.287 82.953 192.312 93.5 C192.828 94.402 192.828 94.402 193.354 95.322 C193.691 95.913 194.029 96.503 194.377 97.112 C194.709 97.693 195.04 98.273 195.382 98.871 C196.339 100.552 197.29 102.237 198.241 103.922 C199.352 105.866 200.489 107.796 201.662 109.703 C202.138 110.492 202.615 111.281 203.105 112.094 C203.523 112.761 203.941 113.428 204.372 114.115 C205 116 205 116 204.118 118.244 C203.749 118.824 203.38 119.403 203 120 C198.992 118.626 196.236 116.711 193 114 C189.92 112.46 187.413 112.776 184 113 C177.747 115.298 172.197 118.704 166.5 122.125 C165.026 123.003 165.026 123.003 163.522 123.899 C160.679 125.595 157.839 127.296 155 129 C154.324 129.405 153.648 129.81 152.952 130.228 C150.665 131.6 148.378 132.972 146.093 134.348 C139.79 138.139 133.456 141.879 127.125 145.625 C117.218 151.487 107.337 157.389 97.471 163.321 C85.348 170.604 73.174 177.803 61 185 C64.765 188.165 68.726 190.754 72.961 193.23 C73.629 193.625 74.296 194.02 74.984 194.427 C77.112 195.684 79.243 196.936 81.375 198.188 C83.46 199.417 85.545 200.647 87.63 201.877 C89.024 202.7 90.418 203.522 91.812 204.344 C97.02 207.414 102.208 210.517 107.389 213.632 C114.575 217.951 121.788 222.225 129 226.5 C136.965 231.221 144.926 235.948 152.863 240.715 C153.487 241.089 154.11 241.463 154.753 241.848 C157.458 243.471 160.161 245.098 162.857 246.737 C175.283 254.772 175.283 254.772 189.5 256.852 C193.947 255.337 196.963 252.502 200 249 C203.753 250.453 203.753 250.453 204.804 252.779 C205.081 255.917 203.962 257.204 202.203 259.789 C201.579 260.722 200.955 261.655 200.312 262.616 C199.632 263.609 198.951 264.602 198.25 265.625 C196.857 267.704 195.467 269.785 194.078 271.867 C193.385 272.902 192.692 273.937 191.979 275.003 C189.214 279.19 186.591 283.454 184 287.75 C183.129 289.19 182.258 290.63 181.387 292.07 C180.985 292.735 180.583 293.399 180.169 294.083 C177.516 298.433 174.763 302.719 172 307 C171.01 306.34 170.02 305.68 169 305 C168.594 301.734 168.594 301.734 168.5 297.75 C168.372 292.358 168.062 288.529 165 284 C162.821 282.401 160.853 281.144 158.5 279.875 C157.138 279.1 155.777 278.323 154.418 277.543 C153.338 276.929 153.338 276.929 152.236 276.302 C148.357 274.043 144.592 271.607 140.812 269.188 C132.693 264.025 124.473 259.049 116.211 254.117 C101.185 245.145 86.282 235.967 71.394 226.769 C65.653 223.227 59.891 219.723 54.104 216.257 C53.073 215.639 53.073 215.639 52.022 215.009 C50.348 214.006 48.674 213.003 47 212 C47.061 230.167 47.138 248.335 47.236 266.502 C47.281 274.938 47.32 283.373 47.346 291.808 C47.369 299.161 47.403 306.513 47.449 313.865 C47.473 317.758 47.491 321.651 47.498 325.544 C47.504 329.209 47.524 332.873 47.554 336.538 C47.567 338.523 47.565 340.508 47.563 342.493 C47.576 343.678 47.588 344.863 47.601 346.084 C47.608 347.625 47.608 347.625 47.615 349.198 C48.235 353.712 50.102 356.256 53.562 359.125 C57.885 361.483 62.254 362.762 67 364 C66.67 366.31 66.34 368.62 66 371 C43.89 371 21.78 371 -1 371 C-1 368.36 -1 365.72 -1 363 C-0.004 362.762 -0.004 362.762 1.012 362.52 C7.41 360.829 11.5 359.055 15.11 353.2 C16.232 350.426 16.246 348.235 16.241 345.242 C16.243 344.067 16.246 342.892 16.249 341.681 C16.242 340.396 16.234 339.11 16.227 337.786 C16.226 336.416 16.227 335.046 16.228 333.676 C16.229 329.959 16.217 326.243 16.203 322.526 C16.19 318.641 16.189 314.756 16.187 310.871 C16.181 303.515 16.164 296.16 16.144 288.804 C16.122 280.429 16.111 272.054 16.101 263.679 C16.08 246.453 16.045 229.226 16 212 C12.178 214.228 8.356 216.457 4.533 218.686 C3.46 219.311 2.387 219.937 1.281 220.581 C-7.187 225.52 -15.636 230.49 -24.062 235.5 C-24.73 235.896 -25.397 236.293 -26.085 236.701 C-36.684 242.998 -47.234 249.372 -57.754 255.801 C-62.883 258.934 -68.032 262.034 -73.188 265.125 C-73.99 265.608 -74.792 266.091 -75.618 266.588 C-79.921 269.174 -84.241 271.725 -88.586 274.238 C-89.502 274.774 -90.419 275.309 -91.363 275.861 C-93.117 276.885 -94.877 277.901 -96.643 278.905 C-102.572 282.291 -102.572 282.291 -106 288 C-106.135 290.786 -106.151 293.359 -106 296.125 C-105.607 303.403 -105.607 303.403 -107.312 305.992 C-109 307 -109 307 -112 307 C-112.51 306.077 -113.021 305.154 -113.547 304.203 C-120.687 291.365 -128.103 278.674 -135.988 266.277 C-136.454 265.543 -136.92 264.809 -137.401 264.053 C-138.279 262.676 -139.163 261.304 -140.054 259.936 C-143 255.328 -143 255.328 -143 252 C-140.5 250.312 -140.5 250.312 -138 249 C-137.217 249.758 -137.217 249.758 -136.418 250.531 C-135.314 251.506 -135.314 251.506 -134.188 252.5 C-133.48 253.15 -132.772 253.799 -132.043 254.469 C-126.751 257.131 -121.12 257.029 -115.514 255.181 C-113.012 254.026 -110.641 252.746 -108.25 251.375 C-107.356 250.884 -106.462 250.394 -105.541 249.888 C-95.815 244.484 -86.338 238.649 -76.885 232.785 C-72.21 229.893 -67.511 227.042 -62.812 224.188 C-60.902 223.025 -58.992 221.862 -57.082 220.699 C-51.583 217.354 -46.082 214.013 -40.58 210.673 C-38.207 209.233 -35.835 207.792 -33.463 206.35 C-27.698 202.846 -21.928 199.352 -16.145 195.879 C-14.541 194.912 -14.541 194.912 -12.904 193.926 C-10.886 192.709 -8.865 191.497 -6.842 190.289 C-5.952 189.752 -5.062 189.214 -4.145 188.66 C-3.364 188.192 -2.584 187.724 -1.781 187.242 C0.144 186.11 0.144 186.11 1 184 C0.287 183.734 -0.427 183.468 -1.162 183.194 C-4.084 181.965 -6.687 180.523 -9.41 178.902 C-10.467 178.275 -11.525 177.647 -12.614 177.001 C-13.764 176.313 -14.913 175.625 -16.062 174.938 C-17.271 174.218 -18.48 173.498 -19.689 172.779 C-28.627 167.451 -37.523 162.053 -46.409 156.639 C-57.419 149.931 -68.493 143.335 -79.587 136.768 C-80.912 135.983 -82.237 135.199 -83.562 134.414 C-84.203 134.035 -84.844 133.655 -85.504 133.265 C-89.408 130.95 -93.302 128.62 -97.188 126.273 C-98.1 125.723 -99.012 125.172 -99.951 124.605 C-101.574 123.623 -103.195 122.639 -104.814 121.651 C-116.99 114.183 -116.99 114.183 -131 114 C-134.698 115.945 -137.848 118.267 -141 121 C-142.32 120.01 -143.64 119.02 -145 118 C-143.466 112.286 -140.583 107.808 -137.438 102.875 C-136.275 101.026 -135.113 99.175 -133.953 97.324 C-133.325 96.323 -132.696 95.322 -132.049 94.291 C-128.208 88.122 -124.452 81.903 -120.688 75.688 C-119.921 74.422 -119.154 73.157 -118.386 71.892 C-116.59 68.929 -114.795 65.965 -113 63 C-111.35 63.33 -109.7 63.66 -108 64 C-108.119 64.941 -108.237 65.882 -108.359 66.852 C-109.27 74.303 -109.27 74.303 -107.562 81.438 C-100.101 88.899 -92.05 94.179 -82.938 99.375 C-81.616 100.138 -80.295 100.901 -78.975 101.666 C-76.42 103.145 -73.863 104.621 -71.305 106.093 C-63.09 110.834 -54.999 115.78 -46.902 120.719 C-44.56 122.147 -42.218 123.574 -39.875 125 C-39.281 125.361 -38.688 125.723 -38.076 126.095 C-24.807 134.167 -11.415 142.023 2.005 149.838 C4.745 151.434 7.485 153.032 10.224 154.63 C11.305 155.261 12.387 155.892 13.501 156.542 C14.326 157.023 15.15 157.504 16 158 C16.07 140.31 16.123 122.62 16.155 104.93 C16.171 96.716 16.192 88.502 16.226 80.287 C16.256 73.124 16.276 65.961 16.282 58.798 C16.286 55.009 16.295 51.219 16.317 47.429 C16.338 43.855 16.344 40.282 16.339 36.708 C16.341 34.785 16.357 32.862 16.373 30.938 C16.349 24.023 16.044 17.339 13 11 C10.333 8.833 10.333 8.833 7 8 C6.358 7.8 5.716 7.6 5.055 7.395 C3.381 6.89 1.692 6.44 0 6 C0 4.02 0 2.04 0 0 Z " fill="#FBFBFB" transform="translate(274,107)"/>
<path d="M0 0 C0.495 0.406 0.989 0.812 1.499 1.23 C15.616 12.821 28.811 25.538 40 40 C40.601 40.71 41.201 41.421 41.82 42.152 C53.22 55.722 62.882 71.262 71 87 C71.396 87.767 71.793 88.534 72.201 89.324 C105.218 154.031 111.7 231.527 89.415 300.725 C85.342 313.146 80.809 325.283 75 337 C74.608 337.806 74.215 338.613 73.811 339.443 C64.596 358.253 53.243 375.772 40 392 C39.571 392.53 39.142 393.061 38.7 393.607 C26.965 408.037 13.814 421.719 -1 433 C-2.499 434.189 -2.499 434.189 -4.027 435.402 C-38.57 462.717 -79.69 481.783 -123 490 C-123.963 490.193 -124.927 490.386 -125.919 490.585 C-195.536 504.051 -272.018 488.429 -330.734 448.855 C-338.407 443.563 -345.857 437.99 -353 432 C-353.742 431.391 -353.742 431.391 -354.499 430.77 C-368.616 419.179 -381.811 406.462 -393 392 C-393.901 390.935 -393.901 390.935 -394.82 389.848 C-406.22 376.278 -415.882 360.738 -424 345 C-424.396 344.233 -424.793 343.466 -425.201 342.676 C-459.178 276.088 -464.141 198.187 -441.164 127.328 C-424.536 77.79 -393.503 31.221 -352 -1 C-350.757 -1.994 -349.515 -2.989 -348.273 -3.984 C-319.506 -26.782 -286.339 -43.184 -251 -53 C-250.213 -53.22 -249.427 -53.44 -248.616 -53.667 C-242.457 -55.349 -236.26 -56.746 -230 -58 C-229.021 -58.199 -228.041 -58.398 -227.032 -58.603 C-147.929 -73.881 -61.636 -51.685 0 0 Z M-225.625 -51.312 C-226.523 -51.146 -227.422 -50.979 -228.347 -50.808 C-271.646 -42.378 -313.104 -23.328 -347 5 C-348.383 6.106 -348.383 6.106 -349.793 7.234 C-364.119 18.928 -377.883 32.191 -389 47 C-389.91 48.16 -390.822 49.319 -391.734 50.477 C-417.385 83.394 -433.885 121.405 -443 162 C-443.24 163.062 -443.48 164.123 -443.728 165.217 C-447.326 182.13 -447.382 199.159 -447.438 216.375 C-447.444 217.478 -447.45 218.581 -447.457 219.717 C-447.525 238.846 -446.04 257.582 -441.375 276.188 C-441.123 277.207 -440.872 278.227 -440.613 279.278 C-435.615 298.876 -428.952 317.862 -420 336 C-419.418 337.19 -419.418 337.19 -418.825 338.403 C-410.397 355.487 -400.008 371.224 -388 386 C-387.368 386.786 -387.368 386.786 -386.724 387.588 C-373.638 403.762 -358.795 418.706 -342 431 C-341.023 431.761 -340.046 432.521 -339.039 433.305 C-331.06 439.487 -322.653 444.826 -314 450 C-313.366 450.382 -312.732 450.763 -312.079 451.156 C-294.104 461.891 -275.043 470.017 -255 476 C-254.087 476.273 -253.174 476.547 -252.233 476.828 C-227.828 484.028 -203.069 487.448 -177.625 487.438 C-176.8 487.438 -175.976 487.439 -175.126 487.44 C-147.768 487.377 -121.017 483.575 -95 475 C-93.714 474.594 -93.714 474.594 -92.402 474.181 C-58.044 463.334 -27.378 445.199 0 422 C0.868 421.265 1.735 420.53 2.629 419.773 C14.67 409.22 26.306 397.762 36 385 C36.938 383.802 37.877 382.604 38.816 381.406 C67.931 343.884 86.807 298.066 93 251 C93.127 250.053 93.127 250.053 93.257 249.086 C94.016 242.962 94.192 236.897 94.238 230.73 C94.248 229.664 94.258 228.598 94.268 227.499 C94.57 194.548 94.57 194.548 90 162 C89.807 161.086 89.615 160.171 89.417 159.229 C80.743 119.07 62.778 79.15 36.334 47.595 C34.992 45.99 33.673 44.367 32.355 42.742 C20.468 28.292 7.041 14.182 -8 3 C-9.143 2.128 -10.287 1.255 -11.43 0.383 C-20.282 -6.304 -29.449 -12.362 -39 -18 C-40.123 -18.665 -40.123 -18.665 -41.268 -19.344 C-66.414 -34.087 -95.733 -46.424 -124.746 -50.661 C-126.466 -50.92 -128.184 -51.202 -129.899 -51.495 C-145.721 -54.184 -161.153 -55.384 -177.188 -55.375 C-178.387 -55.378 -178.387 -55.378 -179.611 -55.38 C-195.049 -55.376 -210.434 -54.133 -225.625 -51.312 Z " fill="#FAFAFA" transform="translate(482,72)"/>
<path d="M0 0 C-2.477 11.385 -5.109 22.713 -8 34 C-7.359 33.859 -6.717 33.719 -6.056 33.573 C3.754 31.663 13.423 31.645 23.375 31.688 C24.708 31.69 24.708 31.69 26.068 31.693 C39.58 31.74 52.728 32.262 66 35 C66.865 35.172 67.73 35.343 68.621 35.52 C105.661 43.04 143.087 61.087 170 88 C174.121 87.815 176.176 85.139 178.914 82.309 C179.598 81.612 179.598 81.612 180.295 80.9 C181.746 79.42 183.186 77.93 184.625 76.438 C186.528 74.472 188.438 72.514 190.352 70.559 C191.195 69.685 192.039 68.812 192.909 67.912 C195 66 195 66 197 66 C198.389 67.961 199.726 69.962 201 72 C200.67 72.33 200.34 72.66 200 73 C201.114 73.433 202.228 73.866 203.375 74.312 C207 76 207 76 209 79 C209.764 83.663 209.43 87.17 207.25 91.375 C203.206 96.093 200.395 97.635 194.188 98.125 C192 98 192 98 189.062 96.438 C186.755 93.711 185.861 91.445 185 88 C182.69 89.98 180.38 91.96 178 94 C179.711 97.422 180.74 98.969 183.375 101.5 C183.96 102.067 184.545 102.634 185.148 103.219 C186.065 104.1 186.065 104.1 187 105 C188.336 106.331 189.67 107.664 191 109 C193.085 107.523 195.168 106.044 197.25 104.562 C197.878 104.116 198.506 103.67 199.153 103.209 C204.413 99.455 209.559 95.568 214.672 91.617 C217 90 217 90 219 90 C220.736 91.944 221.892 93.333 222.312 95.938 C222.908 98.386 222.908 98.386 226.062 100.25 C228.004 101.762 228.874 102.517 229.5 104.922 C229.634 109.376 228.847 112.466 226 116 C221.298 120.128 218.447 121.424 212.266 121.344 C210 121 210 121 206.938 118.875 C204.715 115.577 204.547 113.895 205 110 C204.518 110.361 204.036 110.722 203.539 111.094 C202.907 111.558 202.276 112.022 201.625 112.5 C200.999 112.964 200.372 113.428 199.727 113.906 C198 115 198 115 196 115 C198.265 119.077 200.609 122.958 203.297 126.777 C218.807 148.992 229.756 174.434 235 201 C235.286 202.342 235.573 203.683 235.863 205.023 C238.001 215.177 239.146 225.055 239.203 235.426 C239.21 236.287 239.217 237.148 239.225 238.036 C239.451 273.49 239.451 273.49 236 289 C235.785 290.036 235.57 291.072 235.348 292.139 C228.852 322.952 216.221 351.974 197 377 C196.335 377.877 195.67 378.753 194.984 379.656 C189.7 386.444 183.909 392.759 178 399 C177.123 399.931 176.247 400.861 175.344 401.82 C164.754 412.753 152.613 421.553 140 430 C139.169 430.581 138.337 431.163 137.48 431.762 C116.672 445.82 90.666 455.59 66 460 C65.238 460.147 64.477 460.293 63.692 460.444 C28.215 467.052 -9.859 464.335 -44 453 C-45.062 452.648 -45.062 452.648 -46.145 452.29 C-69.408 444.411 -91.009 432.556 -110 417 C-110.518 416.583 -111.037 416.166 -111.571 415.737 C-125.688 404.369 -138.336 391.672 -149 377 C-149.399 376.451 -149.798 375.902 -150.209 375.336 C-152.892 371.613 -155.462 367.823 -158 364 C-158.643 363.056 -159.286 362.113 -159.949 361.141 C-175.044 337.994 -184.913 310.265 -189 283 C-189.176 281.85 -189.352 280.7 -189.533 279.516 C-191.007 268.986 -191.361 258.624 -191.312 248 C-191.309 246.722 -191.309 246.722 -191.306 245.418 C-191.079 189.223 -169.89 137.572 -131 97 C-130.497 96.47 -129.995 95.94 -129.477 95.395 C-121.576 87.102 -113.283 79.714 -104 73 C-103.009 72.283 -103.009 72.283 -101.998 71.552 C-78.004 54.431 -51.009 41.66 -22 36 C-21.024 35.804 -20.048 35.608 -19.043 35.406 C-18.369 35.272 -17.695 35.138 -17 35 C-15.575 31.169 -14.617 28.089 -15 24 C-16.159 21.744 -16.159 21.744 -17.844 19.645 C-18.43 18.858 -19.017 18.071 -19.621 17.26 C-20.241 16.452 -20.861 15.645 -21.5 14.812 C-22.723 13.197 -23.942 11.579 -25.156 9.957 C-25.701 9.245 -26.246 8.533 -26.807 7.8 C-28 6 -28 6 -28 4 C-25.36 3.67 -22.72 3.34 -20 3 C-17.36 6.96 -14.72 10.92 -12 15 C-11.526 13.432 -11.051 11.865 -10.562 10.25 C-10.296 9.368 -10.029 8.487 -9.754 7.578 C-8.972 5.072 -8.972 5.072 -8.59 2.734 C-8.298 1.876 -8.298 1.876 -8 1 C-5.072 0.024 -3.044 -0.082 0 0 Z M-9 37 C-10.465 37.21 -11.931 37.413 -13.398 37.605 C-22.114 38.844 -30.449 40.82 -38.875 43.375 C-40.264 43.795 -40.264 43.795 -41.681 44.223 C-64.096 51.258 -85.46 62.616 -104 77 C-104.998 77.768 -105.995 78.537 -107.023 79.328 C-140.785 106.221 -166.07 141.688 -179 183 C-179.261 183.831 -179.521 184.663 -179.79 185.519 C-186.279 206.664 -188.26 226.971 -188.312 249 C-188.316 249.878 -188.32 250.756 -188.324 251.66 C-188.355 266.123 -187.273 280.023 -183.812 294.125 C-183.597 295.006 -183.382 295.886 -183.161 296.793 C-174.426 331.496 -158.496 363.558 -134 389.848 C-132.159 391.829 -130.423 393.864 -128.688 395.938 C-101.009 427.471 -58.704 448.782 -18 457 C-16.99 457.222 -16.99 457.222 -15.959 457.449 C-2.628 460.287 10.808 460.291 24.375 460.312 C25.732 460.318 25.732 460.318 27.117 460.323 C41.695 460.354 55.716 459.347 69.938 455.875 C71.246 455.556 71.246 455.556 72.58 455.231 C118.727 443.592 160.359 418.589 190 381 C190.816 379.989 191.632 378.979 192.473 377.938 C198.771 370.051 204.049 361.786 209 353 C209.375 352.345 209.75 351.691 210.137 351.017 C228.025 319.62 236.461 284.24 236.375 248.25 C236.374 247.352 236.373 246.455 236.372 245.53 C236.187 187.652 213.297 137.761 174 96 C173.384 95.341 172.768 94.683 172.133 94.004 C167.162 88.854 161.63 84.406 156 80 C155.18 79.358 155.18 79.358 154.344 78.702 C144.14 70.777 133.368 64.125 122 58 C121.334 57.638 120.667 57.276 119.981 56.903 C90.268 41.066 57.377 34.572 24 34.562 C23.1 34.562 22.199 34.561 21.272 34.561 C10.988 34.588 1.137 35.123 -9 37 Z " fill="#ECECEC" transform="translate(280,41)"/>
<path d="M0 0 C9.099 4.115 12.366 10.873 15.812 19.875 C22.822 41.739 20.676 74.123 10.434 94.637 C6.839 101.066 3.246 106.1 -4.125 108.188 C-9.65 109.305 -14.701 109.043 -20.188 107.875 C-20.326 94.124 -20.433 80.372 -20.498 66.62 C-20.53 60.235 -20.572 53.85 -20.64 47.465 C-20.705 41.305 -20.741 35.146 -20.757 28.986 C-20.768 26.633 -20.79 24.281 -20.822 21.929 C-20.865 18.638 -20.871 15.35 -20.869 12.06 C-20.89 11.083 -20.912 10.106 -20.934 9.1 C-20.911 6.552 -20.833 4.34 -20.188 1.875 C-13.683 -4.134 -7.644 -2.898 0 0 Z " fill="#010101" transform="translate(342.1875,116.125)"/>
<path d="M0 0 C8.339 1.356 16.146 3.891 24.125 6.625 C25.368 7.045 26.61 7.465 27.891 7.898 C30.929 8.927 33.965 9.961 37 11 C36.01 13.31 35.02 15.62 34 18 C26.214 16.389 18.626 14.235 11 12 C15.265 16.385 19.659 20.535 24.301 24.52 C25.577 25.632 26.803 26.803 28 28 C28 29.32 28 30.64 28 32 C22.077 32.109 16.377 31.708 10.5 31 C9.266 30.857 9.266 30.857 8.008 30.711 C6.005 30.478 4.002 30.24 2 30 C2.57 30.348 3.141 30.696 3.728 31.054 C6.304 32.631 8.871 34.222 11.438 35.812 C12.335 36.36 13.233 36.907 14.158 37.471 C15.012 38.002 15.866 38.534 16.746 39.082 C17.932 39.813 17.932 39.813 19.142 40.558 C21 42 21 42 22 45 C20.563 47.688 20.563 47.688 19 50 C12.84 47.055 7.12 43.684 1.375 40 C0.555 39.479 -0.265 38.958 -1.109 38.422 C-5.441 35.664 -9.741 32.867 -14 30 C-12.02 25.545 -12.02 25.545 -10 21 C-2.74 21.66 4.52 22.32 12 23 C6.404 17.372 6.404 17.372 0.5 12.438 C-1.523 10.699 -1.523 10.699 -3 9 C-3.158 4.898 -2.272 3.408 0 0 Z " fill="#F6F6F6" transform="translate(75,163)"/>
<path d="M0 0 C5.577 2.574 8.322 6.655 11 12 C11.812 14.375 11.812 14.375 12 17 C12.062 17.753 12.124 18.506 12.188 19.281 C12.486 25.478 11.776 29.032 8 34 C4.238 37.335 1.14 38.745 -3.98 38.441 C-8.547 37.443 -11.754 34.907 -14.289 31.027 C-17.719 24.427 -18.634 18.414 -18 11 C-15.058 2.339 -8.889 -1.679 0 0 Z " fill="#F5F5F5" transform="translate(356,508)"/>
<path d="M0 0 C4.535 0.497 8.555 1.769 12.812 3.375 C14.524 4.005 14.524 4.005 16.27 4.648 C17.171 5.094 18.072 5.54 19 6 C20.208 9.623 19.543 10.641 18 14 C16.396 13.521 14.792 13.042 13.188 12.562 C11.848 12.162 11.848 12.162 10.48 11.754 C8.645 11.196 6.82 10.607 5 10 C4.34 12.31 3.68 14.62 3 17 C3.699 17.205 4.397 17.41 5.117 17.621 C6.027 17.891 6.937 18.16 7.875 18.438 C8.78 18.704 9.685 18.971 10.617 19.246 C13 20 13 20 15 21 C14.01 24.465 14.01 24.465 13 28 C11.583 27.688 10.167 27.376 8.75 27.062 C7.961 26.888 7.172 26.714 6.359 26.535 C4.231 26.052 2.115 25.538 0 25 C-0.33 26.98 -0.66 28.96 -1 31 C3.95 32.98 3.95 32.98 9 35 C8.744 37.343 8.407 39.678 8 42 C6 43 6 43 4.029 42.471 C3.243 42.172 2.458 41.874 1.648 41.566 C0.798 41.247 -0.053 40.928 -0.93 40.6 C-1.819 40.257 -2.709 39.915 -3.625 39.562 C-4.522 39.224 -5.419 38.886 -6.344 38.537 C-8.565 37.698 -10.784 36.852 -13 36 C-10.771 28.195 -8.137 20.568 -5.375 12.938 C-4.968 11.799 -4.56 10.66 -4.141 9.486 C-3.751 8.407 -3.362 7.327 -2.961 6.215 C-2.608 5.236 -2.255 4.258 -1.892 3.25 C-1 1 -1 1 0 0 Z " fill="#F4F4F4" transform="translate(218,495)"/>
<path d="M0 0 C3.955 3.482 6.274 7.522 8.812 12.062 C9.232 12.782 9.652 13.502 10.084 14.244 C10.475 14.938 10.866 15.632 11.27 16.348 C11.626 16.977 11.983 17.606 12.351 18.254 C13 20 13 20 12 23 C8.938 24.188 8.938 24.188 6 25 C5.67 24.34 5.34 23.68 5 23 C4.567 23.949 4.134 24.898 3.688 25.875 C2 29 2 29 -1 31 C-5.204 31.476 -7.47 31.275 -11.25 29.312 C-14.93 26.218 -16.692 24.269 -17.352 19.41 C-17.594 14.662 -17.563 11.869 -14.938 7.812 C-11.362 5.606 -9.13 5.595 -5 6 C-4.917 5.381 -4.835 4.763 -4.75 4.125 C-4 2 -4 2 -1.938 0.75 C-1.298 0.502 -0.659 0.255 0 0 Z " fill="#F4F4F4" transform="translate(195,65)"/>
<path d="M0 0 C3.125 2.438 3.125 2.438 5 5 C5.33 5.33 5.66 5.66 6 6 C7.699 15.035 3.566 21.569 -1 29 C1.97 29.33 4.94 29.66 8 30 C8 32.31 8 34.62 8 37 C-0.357 37.843 -8.602 38.122 -17 38 C-14.739 33.706 -12.381 29.519 -9.664 25.496 C-9.257 24.888 -8.849 24.28 -8.429 23.653 C-7.614 22.444 -6.787 21.243 -5.948 20.05 C-3.376 16.223 -2.434 13.603 -3 9 C-4.125 7.644 -4.125 7.644 -7.062 7.938 C-8.517 7.968 -8.517 7.968 -10 8 C-10.33 10.31 -10.66 12.62 -11 15 C-13.97 15 -16.94 15 -20 15 C-20.505 9.701 -19.365 7.093 -16 3 C-11.554 -1.042 -5.688 -0.948 0 0 Z " fill="#F3F3F3" transform="translate(328,512)"/>
<path d="M0 0 C3.029 2.356 5.008 4.285 5.648 8.16 C5.587 15.095 4.392 21.16 2.25 27.75 C5.22 26.76 8.19 25.77 11.25 24.75 C11.91 27.06 12.57 29.37 13.25 31.75 C9.627 33.089 6.001 34.42 2.375 35.75 C1.342 36.132 0.31 36.513 -0.754 36.906 C-2.233 37.448 -2.233 37.448 -3.742 38 C-4.653 38.335 -5.565 38.67 -6.503 39.016 C-8.75 39.75 -8.75 39.75 -10.75 39.75 C-9.685 34.134 -8.158 29.037 -6.125 23.688 C-4.179 18.377 -2.994 14.37 -3.75 8.75 C-4.41 8.09 -5.07 7.43 -5.75 6.75 C-8.353 7.07 -8.353 7.07 -10.75 7.75 C-10.832 8.864 -10.915 9.978 -11 11.125 C-11.75 14.75 -11.75 14.75 -13.562 16.188 C-15.75 16.75 -15.75 16.75 -19.75 16.75 C-20.371 7.872 -20.371 7.872 -18.125 3.812 C-12.639 -0.951 -6.944 -3.156 0 0 Z " fill="#F5F5F5" transform="translate(388.75,500.25)"/>
<path d="M0 0 C3.312 1.812 3.312 1.812 6 4 C6.639 4.474 7.279 4.949 7.938 5.438 C9 7 9 7 8.688 9.688 C8.461 10.451 8.234 11.214 8 12 C6.02 12.33 4.04 12.66 2 13 C1.608 12.175 1.216 11.35 0.812 10.5 C0.214 9.675 -0.384 8.85 -1 8 C-3.627 7.582 -3.627 7.582 -6 8 C-5.038 11.93 -4.059 15.085 -1.875 18.5 C0.249 22.465 0.574 24.57 0 29 C-1.703 32.832 -3.154 34.447 -7 36 C-11.935 36.7 -15.912 36.515 -20.438 34.375 C-23.267 31.752 -24.625 29.591 -26 26 C-26 25.01 -26 24.02 -26 23 C-23.36 22.34 -20.72 21.68 -18 21 C-17.01 22.98 -16.02 24.96 -15 27 C-13.35 27 -11.7 27 -10 27 C-9.219 25.221 -9.219 25.221 -9 23 C-10.196 20.803 -10.196 20.803 -11.938 18.688 C-14.088 15.623 -14.986 14.073 -15.688 10.312 C-14.768 5.883 -13.184 4.184 -10 1 C-6.788 -0.606 -3.484 -0.48 0 0 Z " fill="#F7F7F7" transform="translate(440,63)"/>
<path d="M0 0 C0.33 1.65 0.66 3.3 1 5 C-2.96 6.98 -2.96 6.98 -7 9 C-6.67 9.99 -6.34 10.98 -6 12 C-5.408 11.965 -4.817 11.93 -4.207 11.895 C0.725 11.726 4.027 11.728 8 15 C11.588 18.964 11.506 22.135 11.348 27.305 C10.853 31.139 9.651 33.21 7 36 C2.113 39.41 -2.27 39.344 -8 39 C-8.66 36.36 -9.32 33.72 -10 31 C-6.04 30.67 -2.08 30.34 2 30 C2 26.7 2 23.4 2 20 C-2.2 19.671 -4.313 19.512 -7.812 22 C-8.534 22.66 -9.256 23.32 -10 24 C-10.66 24 -11.32 24 -12 24 C-13.032 21.4 -14.051 18.796 -15.062 16.188 C-15.357 15.45 -15.652 14.712 -15.955 13.951 C-18.113 8.34 -18.113 8.34 -17 5 C-14.199 3.359 -14.199 3.359 -10.688 1.75 C-8.961 0.938 -8.961 0.938 -7.199 0.109 C-4.095 -0.967 -2.956 -1.255 0 0 Z " fill="#F3F3F3" transform="translate(416,487)"/>
<path d="M0 0 C3.452 2.301 4.983 4.145 6.812 7.875 C7.684 12.33 7.189 15.163 5.062 19.188 C2.466 22.289 0.502 24.54 -3.555 25.344 C-7.916 25.398 -11.179 25.425 -14.688 22.625 C-18.676 18.237 -19.7 14.982 -19.574 9.129 C-18.8 4.618 -15.934 2.156 -12.312 -0.5 C-7.924 -1.791 -4.283 -1.512 0 0 Z " fill="#F6F6F6" transform="translate(172.1875,86.125)"/>
<path d="M0 0 C3.313 2.761 5.778 5.484 6.637 9.832 C6.918 14.908 5.679 17.995 2.25 21.875 C-2.116 24.785 -5.545 25.526 -10.75 24.875 C-15.087 22.623 -17.919 20.452 -19.75 15.875 C-20.389 12.043 -20.635 8.534 -18.766 5.031 C-13.788 -1.237 -7.469 -3.056 0 0 Z " fill="#F6F6F6" transform="translate(518.75,162.125)"/>
<path d="M0 0 C2.31 0.66 4.62 1.32 7 2 C3.925 12.558 3.925 12.558 2 17 C3.031 16.897 4.062 16.794 5.125 16.688 C10.309 17.106 11.602 18.105 15 22 C15.492 27.276 14.506 31.413 12.75 36.375 C12.124 38.212 12.124 38.212 11.484 40.086 C10 43 10 43 7.969 43.973 C5.502 44.007 4.087 43.267 2 42 C2.499 38.804 3.363 35.987 4.562 33 C5.783 29.872 6.319 27.398 6 24 C4.35 23.67 2.7 23.34 1 23 C0.206 24.561 -0.585 26.124 -1.375 27.688 C-1.816 28.558 -2.257 29.428 -2.711 30.324 C-3.927 32.848 -4.993 35.387 -6 38 C-8.31 37.67 -10.62 37.34 -13 37 C-12.435 31.998 -11.331 27.703 -9.531 23.008 C-9.291 22.376 -9.051 21.745 -8.803 21.094 C-8.299 19.774 -7.791 18.455 -7.28 17.137 C-6.495 15.112 -5.721 13.084 -4.949 11.055 C-1.159 1.159 -1.159 1.159 0 0 Z " fill="#F5F5F5" transform="translate(387,39)"/>
<path d="M0 0 C2.955 1.648 5.276 3.079 7.375 5.75 C8.333 9.199 8.119 12.427 8 16 C-4.67 15.036 -4.67 15.036 -10 14 C-9.01 15.65 -8.02 17.3 -7 19 C-6.397 18.905 -5.793 18.809 -5.172 18.711 C-3.973 18.545 -3.973 18.545 -2.75 18.375 C-1.567 18.201 -1.567 18.201 -0.359 18.023 C2.322 17.997 3.727 18.634 6 20 C5 23 5 23 2 25 C-2.677 25.641 -7.779 26.119 -12.086 23.949 C-14.938 21.591 -16.831 19.542 -17.238 15.828 C-17.363 11.488 -17.259 8.57 -15.438 4.562 C-10.944 -0.162 -6.299 -2.01 0 0 Z " fill="#F6F6F6" transform="translate(342,42)"/>
<path d="M0 0 C8.25 0 16.5 0 25 0 C25 2.64 25 5.28 25 8 C22.03 8 19.06 8 16 8 C16 17.9 16 27.8 16 38 C13.36 38 10.72 38 8 38 C8 28.1 8 18.2 8 8 C5.36 8 2.72 8 0 8 C0 5.36 0 2.72 0 0 Z " fill="#FAFAFA" transform="translate(300,27)"/>
<path d="M0 0 C4.903 2.998 6.434 6.451 8.312 11.625 C8.576 12.306 8.84 12.986 9.111 13.688 C11 18.652 11 18.652 11 21 C8.901 22.274 7.493 23.009 5.012 22.965 C3 22 3 22 1.691 19.094 C0.939 16.699 0.189 14.303 -0.559 11.906 C-1.699 8.775 -1.699 8.775 -4.598 8.031 C-5.787 8.016 -5.787 8.016 -7 8 C-7.33 8.33 -7.66 8.66 -8 9 C-7.943 15.34 -6.212 21.115 -4 27 C-6.31 27.66 -8.62 28.32 -11 29 C-13.535 23.534 -16.033 18.052 -18.375 12.5 C-18.882 11.309 -18.882 11.309 -19.398 10.094 C-20 8 -20 8 -19 5 C-13.25 3.875 -13.25 3.875 -11 5 C-10.711 4.361 -10.423 3.721 -10.125 3.062 C-7.87 -1.072 -4.295 -0.364 0 0 Z " fill="#F5F5F5" transform="translate(224,55)"/>
<path d="M0 0 C2.438 0.75 2.438 0.75 5 2 C5.875 3.836 5.875 3.836 6 6 C4.566 7.93 4.566 7.93 2.562 9.875 C-0.532 13.11 -0.532 13.11 -1.438 17.5 C-1.293 18.325 -1.149 19.15 -1 20 C1.24 20.95 1.24 20.95 4 21 C6.646 18.94 6.646 18.94 9 16 C9.706 15.172 9.706 15.172 10.426 14.328 C11.634 12.899 12.819 11.451 14 10 C15.98 11.32 17.96 12.64 20 14 C16.662 20.29 13.004 25.997 7 30 C2.209 30.471 -0.029 30.513 -4.312 28.25 C-8.202 24.994 -10.149 23.066 -10.688 17.938 C-10.507 10.71 -4.892 4.892 0 0 Z " fill="#F5F5F5" transform="translate(450,87)"/>
<path d="M0 0 C5.651 2.302 5.651 2.302 7 5 C6.062 7.625 6.062 7.625 5 10 C4.29 9.916 3.579 9.832 2.848 9.746 C1.929 9.644 1.009 9.542 0.062 9.438 C-0.854 9.333 -1.771 9.229 -2.715 9.121 C-3.846 9.061 -3.846 9.061 -5 9 C-6.332 10.112 -6.332 10.112 -6.188 12.938 C-6.333 16.109 -6.333 16.109 -4 18 C-1.677 18.4 0.657 18.74 3 19 C2.67 21.31 2.34 23.62 2 26 C-2.804 26.384 -6.09 26.48 -10.438 24.188 C-13.204 21.826 -14.803 20.192 -15.406 16.547 C-15.579 11.386 -15.568 7.922 -12.125 3.875 C-8.24 -0.048 -5.555 -0.37 0 0 Z " fill="#F4F4F4" transform="translate(368,47)"/>
<path d="M0 0 C0 1.98 0 3.96 0 6 C-1.32 6.33 -2.64 6.66 -4 7 C-4 7.99 -4 8.98 -4 10 C-0.452 8.631 -0.452 8.631 2.875 6.812 C6.119 5.572 8.672 6.26 12 7 C14.382 9.382 14.32 10.05 14.375 13.312 C14.307 16.814 14.052 17.917 12.125 21 C8.465 24.445 5.93 24.091 1 24 C1.33 22.02 1.66 20.04 2 18 C3.65 17.67 5.3 17.34 7 17 C7.33 15.68 7.66 14.36 8 13 C7.42 13.361 6.84 13.722 6.242 14.094 C-2.07 19.032 -2.07 19.032 -7 18 C-9.375 16.375 -9.375 16.375 -11 14 C-11.695 10.001 -11.175 8.314 -9.188 4.75 C-6.15 0.932 -4.952 0 0 0 Z " fill="#F1F1F1" transform="translate(116,133)"/>
<path d="M0 0 C-0.33 1.98 -0.66 3.96 -1 6 C-1.639 6.103 -2.279 6.206 -2.938 6.312 C-3.618 6.539 -4.299 6.766 -5 7 C-5.33 7.99 -5.66 8.98 -6 10 C-5.432 9.783 -4.863 9.567 -4.277 9.344 C0.604 7.584 4.738 6.369 10 7 C11.938 8.062 11.938 8.062 13 10 C13.418 13.765 13.319 16.26 11.812 19.75 C9.706 22.364 8.073 23.642 5 25 C1.688 25.188 1.688 25.188 -1 25 C-0.67 22.69 -0.34 20.38 0 18 C1.98 17.67 3.96 17.34 6 17 C6.33 16.01 6.66 15.02 7 14 C5.824 14.495 4.649 14.99 3.438 15.5 C-0.509 16.969 -3.759 17.499 -8 17 C-10.644 15.414 -10.959 14.122 -11.938 11.188 C-12.02 6.96 -10.64 5.226 -8 2 C-4.772 -0.152 -3.716 -0.201 0 0 Z " fill="#F0F0F0" transform="translate(133,114)"/>
<path d="M0 0 C5.708 3.123 5.708 3.123 7 7 C1.585 8.231 1.585 8.231 -1.375 7.062 C-1.911 6.712 -2.447 6.361 -3 6 C-3 6.99 -3 7.98 -3 9 C-1.48 10.211 -1.48 10.211 0.438 11.25 C3.481 13.308 3.94 13.832 5.25 17.5 C5 21 5 21 3.062 23.938 C-0.105 26.071 -2.167 26.739 -6 26.492 C-9.664 25.59 -11.438 23.749 -14 21 C-14.875 18.688 -14.875 18.688 -15 17 C-11.535 16.505 -11.535 16.505 -8 16 C-7.67 16.99 -7.34 17.98 -7 19 C-5.68 18.67 -4.36 18.34 -3 18 C-3.577 17.576 -4.155 17.152 -4.75 16.715 C-10.793 11.942 -10.793 11.942 -11.812 7.312 C-11 4 -11 4 -8.875 1.562 C-5.461 -0.293 -3.83 -0.625 0 0 Z " fill="#F2F2F2" transform="translate(249,517)"/>
<path d="M0 0 C0.33 0.66 0.66 1.32 1 2 C3.64 1.34 6.28 0.68 9 0 C9.495 3.96 9.495 3.96 10 8 C9.031 8.248 8.061 8.495 7.062 8.75 C5.547 9.369 5.547 9.369 4 10 C3.031 12.032 3.031 12.032 3 14 C0.125 14.625 0.125 14.625 -3 15 C-3.66 14.34 -4.32 13.68 -5 13 C-10.28 14.65 -15.56 16.3 -21 18 C-23.152 14.772 -23.201 13.716 -23 10 C-21.929 9.674 -20.858 9.348 -19.754 9.012 C-18.357 8.571 -16.959 8.13 -15.562 7.688 C-14.855 7.474 -14.148 7.261 -13.42 7.041 C-11.582 6.452 -9.786 5.733 -8 5 C-7.67 4.01 -7.34 3.02 -7 2 C-4.567 0.815 -2.72 0 0 0 Z " fill="#F1F1F1" transform="translate(540,203)"/>
<path d="M0 0 C2.31 0.33 4.62 0.66 7 1 C7 3.64 7 6.28 7 9 C7.66 9.33 8.32 9.66 9 10 C9 12.31 9 14.62 9 17 C7.68 17 6.36 17 5 17 C4.867 17.976 4.734 18.952 4.598 19.957 C4.421 21.229 4.244 22.502 4.062 23.812 C3.888 25.077 3.714 26.342 3.535 27.645 C3 31 3 31 2 34 C-0.31 34 -2.62 34 -5 34 C-4.451 27.648 -3.835 21.321 -3 15 C-3.66 15 -4.32 15 -5 15 C-4.67 12.69 -4.34 10.38 -4 8 C-3.01 8 -2.02 8 -1 8 C-0.67 5.36 -0.34 2.72 0 0 Z " fill="#F2F2F2" transform="translate(265,513)"/>
<path d="M0 0 C3.262 1.386 4.551 3.139 6.5 6.062 C8.039 10.679 8.019 15.242 7.5 20.062 C5.812 22.812 5.812 22.812 3.5 24.062 C1 24.188 1 24.188 -1.5 23.062 C-5.856 17.617 -6.871 13.006 -6.781 6.195 C-6.5 4.062 -6.5 4.062 -4.812 1.438 C-2.5 0.062 -2.5 0.062 0 0 Z " fill="#0A0A0A" transform="translate(352.5,514.9375)"/>
<path d="M0 0 C1.32 0.33 2.64 0.66 4 1 C4.33 3.31 4.66 5.62 5 8 C3.02 8.99 3.02 8.99 1 10 C1.144 11.155 1.289 12.31 1.438 13.5 C1.958 17.667 2.479 21.833 3 26 C0.69 26.33 -1.62 26.66 -4 27 C-10 9.766 -10 9.766 -10 3 C-7.674 2.619 -5.339 2.287 -3 2 C-2.67 2.33 -2.34 2.66 -2 3 C-1.34 2.01 -0.68 1.02 0 0 Z " fill="#F2F2F2" transform="translate(244,47)"/>
<path d="M0 0 C1.52 1.859 1.52 1.859 3 4 C2.688 6.25 2.688 6.25 2 8 C3.32 8.99 4.64 9.98 6 11 C5.67 11.99 5.34 12.98 5 14 C1.938 15.188 1.938 15.188 -1 16 C-1.66 15.01 -2.32 14.02 -3 13 C-4.418 13.115 -5.834 13.243 -7.25 13.375 C-8.039 13.445 -8.828 13.514 -9.641 13.586 C-12.021 13.885 -12.021 13.885 -14.047 15.039 C-16 16 -16 16 -20 16 C-20.66 14.02 -21.32 12.04 -22 10 C-14.794 6.285 -7.591 2.855 0 0 Z " fill="#F6F6F6" transform="translate(531,185)"/>
<path d="M0 0 C3.945 1.571 6.194 4.119 9 7.25 C9.846 8.183 10.691 9.117 11.562 10.078 C13.966 12.959 15.983 15.844 18 19 C16.35 20.32 14.7 21.64 13 23 C6.666 17.905 1.372 12.075 -4 6 C-2.848 3.532 -1.952 1.952 0 0 Z " fill="#F4F4F4" transform="translate(141,101)"/>
<path d="M0 0 C5.116 1.702 9.35 4.678 13.812 7.625 C14.601 8.141 15.389 8.656 16.201 9.188 C18.137 10.454 20.07 11.725 22 13 C20.02 15.97 20.02 15.97 18 19 C13.12 17.325 9.008 14.632 4.688 11.875 C3.947 11.407 3.206 10.939 2.443 10.457 C0.627 9.308 -1.187 8.155 -3 7 C-1.125 2.25 -1.125 2.25 0 0 Z " fill="#F4F4F4" transform="translate(97,152)"/>
<path d="M0 0 C3 0.938 3 0.938 4.938 2.688 C6.301 5.575 6.021 6.952 5 9.938 C4.34 10.597 3.68 11.257 3 11.938 C-0.5 11.75 -0.5 11.75 -4 10.938 C-6.155 7.705 -6.469 6.686 -6 2.938 C-4.253 0.026 -3.419 -0.071 0 0 Z " fill="#0E0E0E" transform="translate(166,92.0625)"/>
<path d="M0 0 C1.875 1.125 1.875 1.125 3 3 C2.777 6.647 2.616 8.384 0 11 C-3.5 11.25 -3.5 11.25 -7 11 C-7.66 10.34 -8.32 9.68 -9 9 C-8.812 5.5 -8.812 5.5 -8 2 C-4.767 -0.155 -3.748 -0.469 0 0 Z " fill="#090909" transform="translate(515,168)"/>
<path d="M0 0 C0.66 0.66 1.32 1.32 2 2 C1.812 5.5 1.812 5.5 1 9 C-2 11 -2 11 -5.188 10.625 C-6.58 10.316 -6.58 10.316 -8 10 C-9.329 3.599 -9.329 3.599 -7.938 1.062 C-5.173 -0.453 -3.098 -0.33 0 0 Z " fill="#0A0A0A" transform="translate(479,120)"/>
<path d="M0 0 C2 2 2 2 2.312 4.438 C2 7 2 7 0.875 8.812 C-1.834 10.528 -3.863 10.334 -7 10 C-7.66 9.34 -8.32 8.68 -9 8 C-8.75 4.438 -8.75 4.438 -8 1 C-5.237 -0.381 -3.053 -0.191 0 0 Z " fill="#060606" transform="translate(499,144)"/>
<path d="M0 0 C3.562 0.25 3.562 0.25 7 1 C8.381 3.763 8.191 5.947 8 9 C6 11 6 11 3.562 11.312 C1 11 1 11 -0.812 9.875 C-2.528 7.166 -2.334 5.137 -2 2 C-1.34 1.34 -0.68 0.68 0 0 Z " fill="#060606" transform="translate(188,77)"/>
<path d="M0 0 C4.556 0.556 4.556 0.556 6 2 C6.188 4.938 6.188 4.938 6 8 C5.34 8.66 4.68 9.32 4 10 C0.703 9.67 -0.623 9.377 -3 7 C-2.67 3.703 -2.377 2.377 0 0 Z " fill="#E8E8E8" transform="translate(86,145)"/>
<path d="M0 0 C4.556 0.556 4.556 0.556 6 2 C6.125 5 6.125 5 6 8 C5 9 5 9 2.062 9.188 C-1 9 -1 9 -3 7 C-2.67 3.703 -2.377 2.377 0 0 Z " fill="#EFEFEF" transform="translate(279,540)"/>
<path d="M0 0 C2.5 0.25 2.5 0.25 4.5 2.25 C3.932 7.818 3.932 7.818 2.5 9.25 C0.062 9.438 0.062 9.438 -2.5 9.25 C-4.5 7.25 -4.5 7.25 -4.75 4.75 C-4.401 1.256 -3.494 0.349 0 0 Z " fill="#F4F4F4" transform="translate(133.5,91.75)"/>
<path d="M0 0 C4.29 0.33 8.58 0.66 13 1 C12 4 12 4 9.75 5.25 C6.668 6.09 5.017 5.979 2 5 C1.34 4.34 0.68 3.68 0 3 C0 2.01 0 1.02 0 0 Z " fill="#171717" transform="translate(332,56)"/>
<path d="M0 0 C1.98 0 3.96 0 6 0 C6.66 1.65 7.32 3.3 8 5 C4.7 4.67 1.4 4.34 -2 4 C-1.34 2.68 -0.68 1.36 0 0 Z " fill="#1A1A1A" transform="translate(335,47)"/>
</svg>